<svg width="42" height="39" viewBox="0 0 42 39" fill="none" xmlns="http://www.w3.org/2000/svg">
<path d="M21 0.76001C9.421 0.76001 0 8.26961 0 17.5C0 23.379 3.94664 28.8965 10.3066 31.9244C10.0026 32.8316 9.10678 34.4355 8.17578 35.7363C7.93478 36.0732 7.94331 36.5189 8.19531 36.8481C8.38731 37.0997 8.688 37.24 9 37.24C9.099 37.24 9.19692 37.2247 9.29492 37.1969C11.7239 36.4769 14.3352 35.0782 15.7812 33.715C16.6908 33.901 17.6164 34.0276 18.5488 34.1125C20.9407 36.0455 24.2446 37.2306 27.8418 37.2306C29.0133 37.2306 30.1883 37.0989 31.3379 36.8425C32.3843 37.5427 33.5217 37.8063 34.5723 38.1494C34.7682 38.2139 34.9801 38.2185 35.1788 38.1625C35.3775 38.1064 35.5532 37.9925 35.6816 37.8366C35.81 37.6806 35.8848 37.4902 35.8956 37.2916C35.9065 37.0931 35.8529 36.8962 35.7422 36.7281C35.3841 36.1817 35.1696 35.9518 34.9727 35.5113C38.6494 33.5845 40.9473 30.2875 40.9473 26.6744C40.9473 25.6645 40.7616 24.6959 40.4375 23.7775C41.4334 21.8368 42 19.7231 42 17.5C42 8.26961 32.579 0.76001 21 0.76001ZM27.8418 18.04C34.069 18.04 38.9473 22.0144 38.9473 26.6744C38.9473 29.5309 37.1457 32.217 33.959 33.8631C33.9583 33.8638 33.9577 33.8644 33.957 33.865C33.326 34.1919 33.074 34.8393 33.0723 35.5019C32.8962 35.4182 32.5922 35.3593 32.4473 35.26C32.4466 35.2594 32.446 35.2588 32.4453 35.2581C32.1279 35.0425 31.7395 34.9206 31.3457 34.9206C31.1995 34.9206 31.0526 34.9372 30.9102 34.9694C29.901 35.1964 28.8685 35.3106 27.8418 35.3106C21.6146 35.3106 16.7363 31.3344 16.7363 26.6744C16.7364 22.0144 21.6146 18.04 27.8418 18.04ZM22.7031 24.8144C22.4403 24.8092 22.179 24.8545 21.9346 24.9474C21.6902 25.0404 21.4676 25.1793 21.2798 25.3559C21.092 25.5326 20.9428 25.7434 20.841 25.976C20.7391 26.2087 20.6867 26.4586 20.6867 26.7109C20.6867 26.9633 20.7391 27.2132 20.841 27.4458C20.9428 27.6785 21.092 27.8893 21.2798 28.066C21.4676 28.2426 21.6902 28.3815 21.9346 28.4745C22.179 28.5674 22.4403 28.6127 22.7031 28.6075C22.966 28.6127 23.2272 28.5674 23.4716 28.4745C23.716 28.3815 23.9387 28.2426 24.1265 28.066C24.3142 27.8893 24.4634 27.6785 24.5653 27.4458C24.6671 27.2132 24.7196 26.9633 24.7196 26.7109C24.7196 26.4586 24.6671 26.2087 24.5653 25.976C24.4634 25.7434 24.3142 25.5326 24.1265 25.3559C23.9387 25.1793 23.716 25.0404 23.4716 24.9474C23.2272 24.8545 22.966 24.8092 22.7031 24.8144ZM28.2363 24.8144C27.9735 24.8092 27.7122 24.8545 27.4678 24.9474C27.2234 25.0404 27.0008 25.1793 26.813 25.3559C26.6252 25.5326 26.476 25.7434 26.3742 25.976C26.2723 26.2087 26.2199 26.4586 26.2199 26.7109C26.2199 26.9633 26.2723 27.2132 26.3742 27.4458C26.476 27.6785 26.6252 27.8893 26.813 28.066C27.0008 28.2426 27.2234 28.3815 27.4678 28.4745C27.7122 28.5674 27.9735 28.6127 28.2363 28.6075C28.4992 28.6127 28.7604 28.5674 29.0048 28.4745C29.2493 28.3815 29.4719 28.2426 29.6597 28.066C29.8475 27.8893 29.9966 27.6785 30.0985 27.4458C30.2003 27.2132 30.2528 26.9633 30.2528 26.7109C30.2528 26.4586 30.2003 26.2087 30.0985 25.976C29.9966 25.7434 29.8475 25.5326 29.6597 25.3559C29.4719 25.1793 29.2493 25.0404 29.0048 24.9474C28.7604 24.8545 28.4992 24.8092 28.2363 24.8144ZM33.7695 24.8144C33.5067 24.8092 33.2454 24.8545 33.001 24.9474C32.7566 25.0404 32.534 25.1793 32.3462 25.3559C32.1584 25.5326 32.0092 25.7434 31.9074 25.976C31.8055 26.2087 31.7531 26.4586 31.7531 26.7109C31.7531 26.9633 31.8055 27.2132 31.9074 27.4458C32.0092 27.6785 32.1584 27.8893 32.3462 28.066C32.534 28.2426 32.7566 28.3815 33.001 28.4745C33.2454 28.5674 33.5067 28.6127 33.7695 28.6075C34.0324 28.6127 34.2936 28.5674 34.5381 28.4745C34.7825 28.3815 35.0051 28.2426 35.1929 28.066C35.3807 27.8893 35.5298 27.6785 35.6317 27.4458C35.7335 27.2132 35.786 26.9633 35.786 26.7109C35.786 26.4586 35.7335 26.2087 35.6317 25.976C35.5298 25.7434 35.3807 25.5326 35.1929 25.3559C35.0051 25.1793 34.7825 25.0404 34.5381 24.9474C34.2936 24.8545 34.0324 24.8092 33.7695 24.8144Z" fill="#43AAA0"/>
</svg>
